{"title":"Enders.Game.2013.WEBRip.XviD.AC3-TODE","uid":9536809,"size":950382142,"categoryP":"video","categoryS":"movies","magnet":"?xt=urn:btih:b87b87f0a6725c16e6efb6bc6c6d3b1bd2b5e5be&amp;dn=Enders.Game.2013.WEBRip.XviD.AC3-TODE&amp;tr=udp%3A%2F%2Ftracker.openbittorrent.com%3A80&amp;tr=udp%3A%2F%2Fopen.demonii.com%3A1337&amp;tr=udp%3A%2F%2Ftracker.coppersurfer.tk%3A6969&amp;tr=udp%3A%2F%2Fexodus.desync.com%3A6969","seeders":6,"leechers":0,"uploader":"xxxlavalxxx","files":-1,"time":1390948284,"description":"\n &lt;a href=&quot;\nhttp://www.imdb.com/title/tt1731141/&quot; rel=&quot;nofollow&quot; target=&quot;_NEW&quot;&gt;\nhttp://www.imdb.com/title/tt1731141/&lt;/a&gt;\n\n\nThe International Military seek out a leader who can save the human race from an alien attack. Ender Wiggin, a brilliant young mind, is recruited and trained to lead his fellow soldiers into a battle that will determine the future of Earth.\n\nDirector: Gavin Hood\nWriters: Gavin Hood (screenplay), Orson Scott Card (based on the book Ender's Game by)\nStars: Harrison Ford, Asa Butterfield, Hailee Steinfeld \nGenres: Action | Adventure | Sci-Fi\nCountry: USA\nLanguage: English\n\n\nThanks: PHD\n\n\nFormat                                   : AVI\nFormat/Info                              : Audio Video Interleave\nFile size                                : 906 MiB\nDuration                                 : 1h 53mn\nOverall bit rate                         : 1 113 Kbps\n\nVideo\nID                                       : 0\nFormat                                   : MPEG-4 Visual\nFormat profile                           : Advanced Simple@L5\nFormat settings, BVOP                    : 2\nFormat settings, QPel                    : No\nFormat settings, GMC                     : No warppoints\nFormat settings, Matrix                  : Default (H.263)\nCodec ID                                 : XVID\nCodec ID/Hint                            : XviD\nDuration                                 : 1h 53mn\nBit rate                                 : 722 Kbps\nWidth                                    : 640 pixels\nHeight                                   : 272 pixels\nDisplay aspect ratio                     : 2.35:1\nFrame rate                               : 23.976 fps\nColor space                              : YUV\nChroma subsampling                       : 4:2:0\nBit depth                                : 8 bits\nScan type                                : Progressive\nCompression mode                         : Lossy\nBits/(Pixel*Frame)                       : 0.173\nStream size                              : 588 MiB (65%)\nWriting library                          : XviD 1.2.1 (UTC 2008-12-04)\n\nAudio\nID                                       : 1\nFormat                                   : AC-3\nFormat/Info                              : Audio Coding 3\nMode extension                           : CM (complete main)\nFormat settings, Endianness              : Big\nCodec ID                                 : 2000\nDuration                                 : 1h 53mn\nBit rate mode                            : Constant\nBit rate                                 : 384 Kbps\nChannel(s)                               : 6 channels\nChannel positions                        : Front: L C R, Side: L R, LFE\nSampling rate                            : 48.0 KHz\nBit depth                                : 16 bits\nCompression mode                         : Lossy\nStream size                              : 313 MiB (34%)\nAlignment                                : Aligned on interleaves\nInterleave, duration                     : 64 ms (1.53 video frames)\nInterleave, preload duration             : 192 ms\nTitle                                    : T2_Audio - English\n\n\nscreens\n &lt;a href=&quot;\nhttp://i.imgur.com/NdxwZM8.jpg&quot; rel=&quot;nofollow&quot; target=&quot;_NEW&quot;&gt;\nhttp://i.imgur.com/NdxwZM8.jpg&lt;/a&gt; &lt;a href=&quot;\nhttp://i.imgur.com/xKs4vgR.jpg&quot; rel=&quot;nofollow&quot; target=&quot;_NEW&quot;&gt;\nhttp://i.imgur.com/xKs4vgR.jpg&lt;/a&gt; &lt;a href=&quot;\nhttp://i.imgur.com/BimpMUQ.jpg&quot; rel=&quot;nofollow&quot; target=&quot;_NEW&quot;&gt;\nhttp://i.imgur.com/BimpMUQ.jpg&lt;/a&gt; &lt;a href=&quot;\nhttp://i.imgur.com/d0jNWhb.jpg&quot; rel=&quot;nofollow&quot; target=&quot;_NEW&quot;&gt;\nhttp://i.imgur.com/d0jNWhb.jpg&lt;/a&gt; &lt;a href=&quot;\nhttp://i.imgur.com/LAgqqm0.jpg&quot; rel=&quot;nofollow&quot; target=&quot;_NEW&quot;&gt;\nhttp://i.imgur.com/LAgqqm0.jpg&lt;/a&gt; &lt;a href=&quot;\nhttp://i.imgur.com/Tga3lex.jpg&quot; rel=&quot;nofollow&quot; target=&quot;_NEW&quot;&gt;\nhttp://i.imgur.com/Tga3lex.jpg&lt;/a&gt; &lt;a href=&quot;\nhttp://i.imgur.com/9wD34sl.jpg&quot; rel=&quot;nofollow&quot; target=&quot;_NEW&quot;&gt;\nhttp://i.imgur.com/9wD34sl.jpg&lt;/a&gt; &lt;a href=&quot;\nhttp://i.imgur.com/3GkSgnK.jpg&quot; rel=&quot;nofollow&quot; target=&quot;_NEW&quot;&gt;\nhttp://i.imgur.com/3GkSgnK.jpg&lt;/a&gt; &lt;a href=&quot;\nhttp://i.imgur.com/frsFFKt.jpg&quot; rel=&quot;nofollow&quot; target=&quot;_NEW&quot;&gt;\nhttp://i.imgur.com/frsFFKt.jpg&lt;/a&gt; &lt;a href=&quot;\nhttp://i.imgur.com/7Km5qlk.jpg&quot; rel=&quot;nofollow&quot; target=&quot;_NEW&quot;&gt;\nhttp://i.imgur.com/7Km5qlk.jpg&lt;/a&gt; &lt;a href=&quot;\nhttp://i.imgur.com/4eEAwNq.jpg&quot; rel=&quot;nofollow&quot; target=&quot;_NEW&quot;&gt;\nhttp://i.imgur.com/4eEAwNq.jpg&lt;/a&gt;","torrent":{"xt":"urn:btih:b87b87f0a6725c16e6efb6bc6c6d3b1bd2b5e5be","amp;dn":"Enders.Game.2013.WEBRip.XviD.AC3-TODE","amp;tr":["udp%3A%2F%2Ftracker.openbittorrent.com%3A80","udp%3A%2F%2Fopen.demonii.com%3A1337","udp%3A%2F%2Ftracker.coppersurfer.tk%3A6969","udp%3A%2F%2Fexodus.desync.com%3A6969"],"infoHash":"b87b87f0a6725c16e6efb6bc6c6d3b1bd2b5e5be","infoHashBuffer":{"type":"Buffer","data":[184,123,135,240,166,114,92,22,230,239,182,188,108,109,59,27,210,181,229,190]},"announce":[],"urlList":[]}}